<svg viewBox="0 0 100 100" xmlns="http://www.w3.org/2000/svg" fill="none">
    <defs>
      <linearGradient id="grad1" x1="0%" y1="100%" x2="100%" y2="0%">
        <stop offset="0%" stopColor="#29ABE2" stopOpacity="0.8" />
        <stop offset="100%" stopColor="#29ABE2" stopOpacity="1" />
      </linearGradient>
       <linearGradient id="grad2" x1="0%" y1="0%" x2="100%" y2="100%">
        <stop offset="0%" stopColor="#0B98A1" />
        <stop offset="100%" stopColor="#A3D978" />
      </linearGradient>
    </defs>
    
    <g transform="translate(0, 100) scale(1, -1)">
        <g transform="translate(10, 0) scale(0.8)">
            {/* Main circuit path */}
            <path
            d="M20 85 V 65 H 40 V 75 H 50 V 55 H 30 V 45 H 60 V 35 H 50"
            stroke="url(#grad1)"
            strokeWidth="8"
            strokeLinecap="round"
            strokeLinejoin="round"
            />
            
            {/* Branching circuit paths */}
            <path d="M40 70 V 60" stroke="url(#grad1)" strokeWidth="6" strokeLinecap="round" />
            <path d="M30 50 H 20" stroke="url(#grad1)" strokeWidth="6" strokeLinecap="round" />
            <path d="M60 40 V 30" stroke="url(#grad1)" strokeWidth="6" strokeLinecap="round" />
            <path d="M55 55 H 75 V 65" stroke="url(#grad1)" strokeWidth="6" strokeLinecap="round" />
            <path d="M75 60 H 85" stroke="url(#grad1)" strokeWidth="6" strokeLinecap="round" />

            {/* Graduation Cap */}
            <g transform="translate(40, 10) scale(0.9)">
            {/* Mortarboard */}
            <path 
                d="M25 15 L50 25 L25 35 L0 25 Z" 
                fill="#222"
            />
            {/* Cap body */}
            <path 
                d="M5 26 L25 35 L25 22 Z"
                fill="#444"
            />
            {/* Tassel */}
            <path 
                d="M50 25 L 50 32 C 50 34, 55 34, 55 32 L 55 28"
                stroke="url(#grad2)"
                strokeWidth="5"
                strokeLinecap="round"
            />
            <circle cx="50" cy="25" r="4" fill="url(#grad2)" />
            </g>
        </g>
    </g>
</svg>